<?xml version="1.0" encoding="UTF-8"?>
<svg id="Layer_1" data-name="Layer 1" xmlns="http://www.w3.org/2000/svg" viewBox="0 0 47.31 30.26">
  <defs>
    <style>
      .cls-1 {
        fill: none;
        stroke: #fff;
        stroke-linejoin: round;
        stroke-width: 2px;
      }
    </style>
  </defs>
  <path class="cls-1" d="M6.95,28.74s31.16,.52,31.23,.52c6.44,.11,10.57-9.02,6.53-13.92-2.04-2.48-5.64-3.3-8.7-3.46,0,0-1.34-7.09-9.82-5.15,0,0-.91-1.55-1.02-1.72C22.83,1.52,18.35,.14,14.42,1.54c-3.85,1.38-6.01,5.12-6.13,9.09-.02,.8,.13,1.62,.2,2.42,0,.05,0,.11-.02,.16-.04,.06-.13,.07-.21,.08-4.19,.23-7.75,4.35-7.22,8.55,.41,3.23,2.76,6.01,5.9,6.9Z"/>
</svg>