<?xml version="1.0" encoding="UTF-8"?>
<svg id="Layer_1" data-name="Layer 1" xmlns="http://www.w3.org/2000/svg" viewBox="0 0 88.43 55.43">
  <defs>
    <style>
      .cls-1 {
        fill: #fff;
      }

      .cls-1, .cls-2, .cls-3 {
        stroke: #231f20;
        stroke-miterlimit: 10;
      }

      .cls-2 {
        fill: #aeb0b1;
      }

      .cls-3 {
        fill: #87b6e2;
      }
    </style>
  </defs>
  <path class="cls-2" d="M.6,13.03C-.24,6.66,4.3,4.54,9,4.54c6.1,0,9.02,2.89,9.46,9.43,.22,3.42,.95,8.96,2.3,13.44,.45,1.47,2.02,.83,1.74-.35-.78-3.42-1.51-9.37-1.79-12.44-.78-8.07,3.98-10.08,10.75-10.08,7.95,0,11.37,3.95,9.97,10.61-2.02,9.61-6.55,18.86-11.7,22.34-.17,2.18-.28,7.49-.5,9.55-.45,4.42-2.97,7.9-7.62,7.9s-7.28-3.54-7.73-7.9c-.28-3.3-.28-6.25-.45-9.55C6.65,32.95,1.89,22.16,.6,13.03Z"/>
  <path class="cls-2" d="M61.75,38.37c-.11,2.89-.34,5.78-.62,8.61-.39,4.42-2.74,7.9-7.39,7.9s-7.06-3.48-7.45-7.9c-.73-7.01-.84-14.5-.78-21.81,.11-16.92,5.1-21.1,19.82-21.22,11.59-.12,17.97,6.13,17.86,18.33,0,8.19-2.52,12.91-8.73,15.32-.95,.3-.56,1.47,.34,1.24,1.62-.35,3.42-1.41,4.87-2.42,1.96,1.77,3.98,4.36,5.21,8.02,1.29,3.89,.17,7.54-4.09,9.55-4.59,2.24-10.13,.06-12.71-4.42-1.74-3.01-2.8-6.95-3.14-11.08-1.06,0-2.13-.06-3.19-.12Zm6.89-14.38c-2.63-1-4.65-2.18-6.72-4.42-.67-.65-1.96,.65-1.23,1.71,1.62,2.3,4.42,3.65,7.06,4.66,1.18,.41,1.68-1.53,.9-1.95Z"/>
  <g>
    <path class="cls-3" d="M3.16,9.58C2.32,3.21,6.85,1.09,11.56,1.09c6.1,0,9.02,2.89,9.46,9.43,.22,3.42,.95,8.96,2.3,13.44,.45,1.47,2.02,.83,1.74-.35-.78-3.42-1.51-9.37-1.79-12.44-.78-8.07,3.98-10.08,10.75-10.08,7.95,0,11.37,3.95,9.97,10.61-2.02,9.61-6.55,18.86-11.7,22.34-.17,2.18-.28,7.49-.5,9.55-.45,4.42-2.97,7.9-7.62,7.9s-7.28-3.54-7.73-7.9c-.28-3.3-.28-6.25-.45-9.55C9.21,29.5,4.45,18.71,3.16,9.58Z"/>
    <path class="cls-3" d="M64.31,34.92c-.11,2.89-.34,5.78-.62,8.61-.39,4.42-2.74,7.9-7.39,7.9s-7.06-3.48-7.45-7.9c-.73-7.01-.84-14.5-.78-21.81,.11-16.92,5.1-21.1,19.82-21.22,11.59-.12,17.97,6.13,17.86,18.33,0,8.19-2.52,12.91-8.73,15.32-.95,.3-.56,1.47,.34,1.24,1.62-.35,3.42-1.41,4.87-2.42,1.96,1.77,3.98,4.36,5.21,8.02,1.29,3.89,.17,7.54-4.09,9.55-4.59,2.24-10.13,.06-12.71-4.42-1.74-3.01-2.8-6.95-3.14-11.08-1.06,0-2.13-.06-3.19-.12Zm6.89-14.38c-2.63-1-4.65-2.18-6.72-4.42-.67-.65-1.96,.65-1.23,1.71,1.62,2.3,4.42,3.65,7.06,4.66,1.18,.41,1.68-1.53,.9-1.95Z"/>
    <path class="cls-1" d="M35.82,24.51c-.34,0-.68-.09-.99-.29-.89-.57-1.17-1.78-.63-2.7,4.36-7.39,4.47-12.55,4.47-12.6,.01-1.08,.86-1.95,1.89-1.95h.01c1.04,0,1.88,.88,1.88,1.96,0,.25-.06,6.22-5.03,14.64-.36,.61-.98,.94-1.62,.94Z"/>
    <path class="cls-1" d="M79.62,28.25c-.34,0-.68-.09-.99-.29-.89-.57-1.17-1.78-.62-2.7,3.03-5.13-.13-14.34-.17-14.43-.36-1.02,.15-2.15,1.13-2.52,.98-.37,2.07,.15,2.43,1.17,.16,.45,3.83,11.08-.16,17.83-.36,.6-.98,.94-1.62,.94Z"/>
  </g>
</svg>